<svg class="Icon-svg" xmlns="http://www.w3.org/2000/svg" xmlns:xlink="http://www.w3.org/1999/xlink" viewBox="0 0 64 64" focusable="false" width="28"  height="28" ><g fill="#00aeff" id="Icon_shop">
      <circle cx="26.306" cy="46.606" r="4.439"></circle>
      <circle cx="44.306" cy="46.606" r="4.439"></circle>
      <path d="M56.145,13.998c-1.318-0.416-2.721,0.318-3.135,1.634l-1.424,4.525   c-0.169-0.036-0.344-0.057-0.525-0.057H19.253l-1.391-4.419c-1.396-5.08-8.454-5.227-9.257-5.227c-1.381,0-2.5,1.119-2.5,2.5   s1.119,2.5,2.5,2.5c1.603,0,4.191,0.624,4.439,1.564c0.01,0.039,0.021,0.077,0.033,0.114l4.994,15.861   c0.543,1.522,1.816,5.089,6.329,5.089h22.059c4.509,0,5.783-3.565,6.358-5.179l4.963-15.771   C58.194,15.816,57.462,14.413,56.145,13.998z M46.458,33.083H24.399c-0.719,0-0.988,0-1.589-1.68l-1.984-6.303h29.205l-1.954,6.212   C47.444,33.083,47.196,33.083,46.458,33.083z"></path>
    </g></svg>