<svg xmlns="http://www.w3.org/2000/svg" xmlns:xlink="http://www.w3.org/1999/xlink" viewBox="0 0 64 64" focusable="false" aria-hidden="true" width="64"  height="64" ><g id="Navbar-icon-download">
    <polygon points="37,31.065 37,22 27,22 27,31.065 20.385,31.065 31.979,43.547    43.615,31.065  "></polygon>
    <path d="M49.5,55h-35C11.467,55,9,52.533,9,49.5v-35C9,11.467,11.467,9,14.5,9h35   c3.033,0,5.5,2.467,5.5,5.5v35C55,52.533,52.533,55,49.5,55z M14.5,14c-0.276,0-0.5,0.224-0.5,0.5v35c0,0.276,0.224,0.5,0.5,0.5h35   c0.276,0,0.5-0.224,0.5-0.5v-35c0-0.276-0.224-0.5-0.5-0.5H14.5z"></path>
</g></svg>