<svg xmlns="http://www.w3.org/2000/svg" xmlns:xlink="http://www.w3.org/1999/xlink" viewBox="0 0 64 64" focusable="false" aria-hidden="true" width="64"  height="64" ><g id="Navbar-icon-chat">
    <path d="M20.5,53.25c-0.333,0-0.67-0.067-0.988-0.204c-0.917-0.395-1.511-1.298-1.511-2.296   v-9H14.5c-3.033,0-5.5-2.467-5.5-5.5v-20c0-3.033,2.467-5.5,5.5-5.5h35c3.033,0,5.5,2.467,5.5,5.5v20c0,3.033-2.467,5.5-5.5,5.5   H33.653L22.219,52.566C21.746,53.014,21.127,53.25,20.5,53.25z M14.5,15.75c-0.276,0-0.5,0.224-0.5,0.5v20   c0,0.276,0.224,0.5,0.5,0.5h6.001c1.381,0,2.5,1.119,2.5,2.5v5.694l7.938-7.51c0.464-0.439,1.079-0.684,1.718-0.684H49.5   c0.276,0,0.5-0.224,0.5-0.5v-20c0-0.276-0.224-0.5-0.5-0.5H14.5z"></path>
</g></svg>