<svg class="Icon-svg" xmlns="http://www.w3.org/2000/svg" xmlns:xlink="http://www.w3.org/1999/xlink" viewBox="0 0 64 64" focusable="false" width="28"  height="28" ><g fill="#00aeff" id="Icon_play">
      <path d="M32,30.95c-1.657,0-3-1.343-3-3v-7c0-1.657,1.343-3,3-3s3,1.343,3,3v7    C35,29.607,33.657,30.95,32,30.95z"></path>
      <path d="M32,55.074c-9.09,0-17.064-8.062-17.064-17.252V13.87c0-2.957,2.065-4.944,5.139-4.944H44.12    c3.003,0,4.944,1.94,4.944,4.944v23.951C49.064,47.012,41.09,55.074,32,55.074z M19.936,13.931v23.89    c0,6.527,5.637,12.252,12.064,12.252s12.064-5.726,12.064-12.252V13.926H20.075C20.022,13.926,19.976,13.928,19.936,13.931z"></path>
    </g></svg>